<?xml version="1.0" encoding="UTF-8"?>
<svg width="24px" height="24px" viewBox="0 0 24 24" version="1.1" xmlns="http://www.w3.org/2000/svg" xmlns:xlink="http://www.w3.org/1999/xlink">
    <!-- Generator: Sketch 51.1 (57501) - http://www.bohemiancoding.com/sketch -->
    <title>我的位置</title>
    <desc>Created with Sketch.</desc>
    <defs></defs>
    <g id="PC网页" stroke="none" stroke-width="1" fill="none" fill-rule="evenodd">
        <g id="附近培优" transform="translate(-1398.000000, -438.000000)" fill="#745669" fill-rule="nonzero">
            <g id="Group-13" transform="translate(1390.000000, 430.000000)">
                <path d="M19.9999864,8.0055231 C13.3754406,8.0055231 8.00504519,13.3757256 8.00504519,20 C8.00504519,26.6243015 13.3754406,31.9944769 20.0000136,31.9944769 C26.6245594,31.9944769 31.9949819,26.6243286 31.9949819,20 C31.9949548,13.3757256 26.6245323,8.0055231 19.9999864,8.0055231 Z M20.7996619,30.3545847 L20.7996619,26.3970598 C20.7996619,25.9558589 20.4419915,25.5974171 19.9999865,25.5974171 C19.5579814,25.5974171 19.2003111,25.9558589 19.2003111,26.3970598 L19.2003111,30.3545847 C14.0985615,29.9657012 10.0323046,25.9003971 9.64261907,20.7996426 L13.6026917,20.7996426 C14.0446967,20.7996426 14.402367,20.441987 14.402367,20 C14.402367,19.558013 14.0446967,19.2003574 13.6026917,19.2003574 L9.64264617,19.2003574 C10.0323317,14.0996029 14.0985886,10.0342717 19.2003382,9.64538821 L19.2003382,13.6029402 C19.2003382,14.0449272 19.5580085,14.4025829 20.0000136,14.4025829 C20.4420186,14.4025829 20.799689,14.0449272 20.799689,13.6029402 L20.799689,9.64538821 C25.9014386,10.0342717 29.9676954,14.0995758 30.357381,19.2003574 L26.3973083,19.2003574 C25.9561165,19.2003574 25.5976601,19.558013 25.5976601,20 C25.5976601,20.441987 25.9561165,20.7996426 26.3973083,20.7996426 L30.357381,20.7996426 C29.9676954,25.9003971 25.9014386,29.9657283 20.7996619,30.3545847 Z M19.9999864,17.6010992 C18.6747574,17.6010992 17.6009873,18.6748253 17.6009873,20 C17.6009873,21.3251747 18.6747574,22.3989008 19.9999864,22.3989008 C21.3252155,22.3989008 22.3989855,21.3251747 22.3989855,20 C22.3989855,18.6748253 21.3252155,17.6010992 19.9999864,17.6010992 Z" id="我的位置"></path>
            </g>
        </g>
    </g>
</svg>